<mxfile host="app.diagrams.net" modified="2022-02-08T07:30:45.776Z" agent="5.0 (Windows NT 10.0; Win64; x64) AppleWebKit/537.36 (KHTML, like Gecko) Chrome/96.0.4664.110 Safari/537.36" etag="fTugZiIUtNnuaRmM3qGm" version="16.5.3" type="github">
  <diagram name="Page-1" id="97916047-d0de-89f5-080d-49f4d83e522f">
    <mxGraphModel dx="2031" dy="1089" grid="1" gridSize="10" guides="1" tooltips="1" connect="1" arrows="1" fold="1" page="1" pageScale="1.5" pageWidth="1169" pageHeight="827" background="none" math="0" shadow="0">
      <root>
        <mxCell id="0" />
        <mxCell id="1" parent="0" />
        <mxCell id="HV4kGWUIBfGor4adAAQZ-56" style="edgeStyle=orthogonalEdgeStyle;rounded=0;orthogonalLoop=1;jettySize=auto;html=1;exitX=0.5;exitY=1;exitDx=0;exitDy=0;" edge="1" parent="1" source="3" target="HV4kGWUIBfGor4adAAQZ-55">
          <mxGeometry relative="1" as="geometry">
            <Array as="points">
              <mxPoint x="771" y="428" />
              <mxPoint x="1240" y="428" />
            </Array>
          </mxGeometry>
        </mxCell>
        <mxCell id="HV4kGWUIBfGor4adAAQZ-57" style="edgeStyle=orthogonalEdgeStyle;rounded=0;orthogonalLoop=1;jettySize=auto;html=1;" edge="1" parent="1" source="3" target="6">
          <mxGeometry relative="1" as="geometry">
            <Array as="points">
              <mxPoint x="771" y="430" />
              <mxPoint x="972" y="430" />
            </Array>
          </mxGeometry>
        </mxCell>
        <mxCell id="HV4kGWUIBfGor4adAAQZ-58" style="edgeStyle=orthogonalEdgeStyle;rounded=0;orthogonalLoop=1;jettySize=auto;html=1;" edge="1" parent="1" source="3" target="5">
          <mxGeometry relative="1" as="geometry" />
        </mxCell>
        <mxCell id="HV4kGWUIBfGor4adAAQZ-59" style="edgeStyle=orthogonalEdgeStyle;rounded=0;orthogonalLoop=1;jettySize=auto;html=1;exitX=0.5;exitY=1;exitDx=0;exitDy=0;" edge="1" parent="1" source="3" target="4">
          <mxGeometry relative="1" as="geometry">
            <mxPoint x="772" y="430" as="sourcePoint" />
          </mxGeometry>
        </mxCell>
        <mxCell id="3" value="导航栏" style="rounded=1;shadow=1;fontStyle=1;fontSize=14;" parent="1" vertex="1">
          <mxGeometry x="659" y="280" width="218" height="60" as="geometry" />
        </mxCell>
        <mxCell id="4" value="发现" style="rounded=1;shadow=1;fontStyle=1;fontSize=14;" parent="1" vertex="1">
          <mxGeometry x="302" y="455.5" width="200" height="60" as="geometry" />
        </mxCell>
        <mxCell id="5" value="记录" style="rounded=1;shadow=1;fontStyle=1;fontSize=14;" parent="1" vertex="1">
          <mxGeometry x="581" y="455.5" width="200" height="60" as="geometry" />
        </mxCell>
        <mxCell id="6" value="统计" style="rounded=1;shadow=1;fontStyle=1;fontSize=14;" parent="1" vertex="1">
          <mxGeometry x="861" y="455.5" width="200" height="60" as="geometry" />
        </mxCell>
        <mxCell id="HV4kGWUIBfGor4adAAQZ-55" value="设置" style="rounded=1;shadow=1;fontStyle=1;fontSize=14;" vertex="1" parent="1">
          <mxGeometry x="1140" y="455.5" width="200" height="60" as="geometry" />
        </mxCell>
      </root>
    </mxGraphModel>
  </diagram>
</mxfile>
